<svg width="50" height="43" viewBox="0 0 50 43" fill="none" xmlns="http://www.w3.org/2000/svg">
<path d="M32.2602 8.3252C34.5496 8.3252 36.4228 6.45203 36.4228 4.1626C36.4228 1.87317 34.5496 0 32.2602 0C29.9707 0 28.0976 1.87317 28.0976 4.1626C28.0976 6.45203 29.9707 8.3252 32.2602 8.3252ZM10.4065 21.8537C4.57886 21.8537 0 26.4325 0 32.2602C0 38.0878 4.57886 42.6667 10.4065 42.6667C16.2341 42.6667 20.813 38.0878 20.813 32.2602C20.813 26.4325 16.2341 21.8537 10.4065 21.8537ZM10.4065 39.5447C6.45203 39.5447 3.12195 36.2146 3.12195 32.2602C3.12195 28.3057 6.45203 24.9756 10.4065 24.9756C14.361 24.9756 17.6911 28.3057 17.6911 32.2602C17.6911 36.2146 14.361 39.5447 10.4065 39.5447ZM22.478 18.7317L27.4732 13.7366L29.1382 15.4016C31.8439 18.1073 35.3821 19.7724 39.7528 19.7724V15.6098C36.6309 15.6098 34.1333 14.361 32.2602 12.4878L28.3057 8.53333C27.265 7.70081 26.2244 7.28455 24.9756 7.28455C23.7268 7.28455 22.6862 7.70081 22.0618 8.53333L16.2341 14.361C15.4016 15.1935 14.9854 16.2341 14.9854 17.2748C14.9854 18.5236 15.4016 19.5642 16.2341 20.1886L22.8943 26.0163V36.4228H27.0569V23.5187L22.478 18.7317ZM39.5447 21.8537C33.7171 21.8537 29.1382 26.4325 29.1382 32.2602C29.1382 38.0878 33.7171 42.6667 39.5447 42.6667C45.3724 42.6667 49.9512 38.0878 49.9512 32.2602C49.9512 26.4325 45.3724 21.8537 39.5447 21.8537ZM39.5447 39.5447C35.5902 39.5447 32.2602 36.2146 32.2602 32.2602C32.2602 28.3057 35.5902 24.9756 39.5447 24.9756C43.4992 24.9756 46.8293 28.3057 46.8293 32.2602C46.8293 36.2146 43.4992 39.5447 39.5447 39.5447Z" fill="#FF0101"/>
</svg>
