<svg width="43" height="43" viewBox="0 0 43 43" fill="none" xmlns="http://www.w3.org/2000/svg">
<path d="M39.616 27.4347L42.6667 24.384L39.616 21.3333L32 28.9493L13.7173 10.6667L21.3333 3.05067L18.2827 0L15.232 3.05067L12.1813 0L7.616 4.56533L4.56533 1.51467L1.51467 4.56533L4.56533 7.616L0 12.1813L3.05067 15.232L0 18.2827L3.05067 21.3333L10.6667 13.7173L28.9493 32L21.3333 39.616L24.384 42.6667L27.4347 39.616L30.4853 42.6667L35.0507 38.1013L38.1013 41.152L41.152 38.1013L38.1013 35.0507L42.6667 30.4853L39.616 27.4347Z" fill="#FF0101"/>
</svg>
