<svg width="49" height="43" viewBox="0 0 49 43" fill="none" xmlns="http://www.w3.org/2000/svg">
<path d="M24.3333 11C27.2789 11 29.6667 8.61217 29.6667 5.66665C29.6667 2.72113 27.2789 0.333313 24.3333 0.333313C21.3878 0.333313 19 2.72113 19 5.66665C19 8.61217 21.3878 11 24.3333 11Z" fill="#FF0101"/>
<path d="M48.3333 32.3333V27C42.36 27 37.24 24.44 33.4 19.8533L29.8266 15.5867C28.8133 14.36 27.32 13.6667 25.7466 13.6667H22.9466C21.3733 13.6667 19.88 14.36 18.8666 15.5867L15.2933 19.8533C11.4266 24.44 6.30665 27 0.333313 27V32.3333C7.71998 32.3333 14.1733 29.2133 19 23.6667V29.6667L8.65331 33.8C6.86665 34.52 5.66665 36.28 5.66665 38.2267C5.66665 40.8667 7.79998 43 10.44 43H16.3333V41.6667C16.3333 37.9867 19.32 35 23 35H31C31.7466 35 32.3333 35.5867 32.3333 36.3333C32.3333 37.08 31.7466 37.6667 31 37.6667H23C20.7866 37.6667 19 39.4533 19 41.6667V43H38.2266C40.8666 43 43 40.8667 43 38.2267C43 36.28 41.8 34.52 40.0133 33.8L29.6666 29.6667V23.6667C34.4933 29.2133 40.9466 32.3333 48.3333 32.3333Z" fill="#FF0101"/>
</svg>
