<svg width="43" height="43" viewBox="0 0 43 43" fill="none" xmlns="http://www.w3.org/2000/svg">
<path d="M17.7778 14.2222L12 20C12.5512 20.2133 12.9956 20.48 13.3689 20.6933C14.0267 21.1022 14.4178 21.3333 15.4134 21.3333C16.4089 21.3333 16.8 21.1022 17.4578 20.6933C18.2756 20.2133 19.3778 19.5555 21.3512 19.5555C23.3245 19.5555 24.4267 20.2133 25.2267 20.6933C25.8845 21.0844 26.2934 21.3333 27.2712 21.3333C28.2489 21.3333 28.6578 21.1022 29.3156 20.6933C29.5289 20.5688 29.7778 20.4266 30.0445 20.2844L18.6312 8.88885C15.8756 6.13329 13.3334 5.31551 8.88894 5.33329V9.77773C12.1245 9.75996 14.0267 10.4711 16 12.4444L17.7778 14.2222ZM39.1112 29.3333H39.0756H39.1112ZM9.51116 27.5555C10.4889 27.5555 10.8978 27.8044 11.5556 28.1955C12.3556 28.6755 13.4578 29.3333 15.4312 29.3333C17.4045 29.3333 18.5067 28.6755 19.3067 28.1955C19.9645 27.7866 20.3556 27.5555 21.3512 27.5555C22.3289 27.5555 22.7378 27.8044 23.3956 28.1955C24.1956 28.6755 25.2978 29.3333 27.2712 29.3333C29.2445 29.3333 30.3467 28.6755 31.1467 28.1955C31.8045 27.7866 32.1956 27.5555 33.1912 27.5555C34.1689 27.5555 34.5778 27.8044 35.2356 28.1955C36.0356 28.6755 37.12 29.3155 39.0756 29.3333V25.7777C38.0978 25.7777 37.6889 25.5288 37.0312 25.1377C36.2312 24.6577 35.1289 24 33.1556 24C31.1823 24 30.08 24.6577 29.28 25.1377C28.6223 25.5466 28.2134 25.7777 27.2356 25.7777C26.2578 25.7777 25.8489 25.5288 25.1912 25.1377C24.3912 24.6577 23.2889 24 21.3156 24C19.3423 24 18.24 24.6577 17.44 25.1377C16.7823 25.5466 16.3912 25.7777 15.3956 25.7777C14.4178 25.7777 14.0089 25.5288 13.3512 25.1377C12.5512 24.6577 11.4489 24 9.4756 24C7.50227 24 6.40005 24.6577 5.60005 25.1377C4.94227 25.5466 4.55116 25.7777 3.5556 25.7777V29.3333C5.52894 29.3333 6.63116 28.6755 7.46671 28.1955C8.12449 27.7866 8.53338 27.5555 9.51116 27.5555ZM33.1912 32C31.2178 32 30.1156 32.6577 29.3156 33.1377C28.6578 33.5466 28.2489 33.7777 27.2712 33.7777C26.2934 33.7777 25.8845 33.5288 25.2267 33.1377C24.4267 32.6577 23.3245 32 21.3512 32C19.3778 32 18.2756 32.6577 17.4578 33.1377C16.8 33.5466 16.4089 33.7777 15.4134 33.7777C14.4178 33.7777 14.0267 33.5466 13.3689 33.1377C12.5689 32.6577 11.4667 32 9.49338 32C7.52005 32 6.41783 32.6577 5.60005 33.1377C4.94227 33.5466 4.55116 33.7777 3.5556 33.7777V37.3333C5.52894 37.3333 6.63116 36.6755 7.44894 36.1955C8.10671 35.7866 8.5156 35.5555 9.49338 35.5555C10.4712 35.5555 10.88 35.7866 11.5378 36.1955C12.3378 36.6755 13.44 37.3333 15.4134 37.3333C17.3867 37.3333 18.4889 36.6755 19.3067 36.1955C19.9645 35.7866 20.3556 35.5555 21.3512 35.5555C22.3289 35.5555 22.7378 35.8044 23.3956 36.1955C24.1956 36.6755 25.2978 37.3333 27.2712 37.3333C29.2445 37.3333 30.3289 36.6755 31.1467 36.1955C31.8045 35.7866 32.1956 35.5555 33.1912 35.5555C34.1689 35.5555 34.5778 35.8044 35.2356 36.1955C36.0356 36.6755 37.1378 37.3333 39.1112 37.3333V33.7777C38.1156 33.7777 37.7245 33.5466 37.0667 33.1377C36.2667 32.6577 35.1645 32 33.1912 32Z" fill="#FF0101"/>
<path d="M29.3334 14.2222C31.788 14.2222 33.7778 12.2324 33.7778 9.77779C33.7778 7.32319 31.788 5.33334 29.3334 5.33334C26.8788 5.33334 24.8889 7.32319 24.8889 9.77779C24.8889 12.2324 26.8788 14.2222 29.3334 14.2222Z" fill="#FF0101"/>
</svg>
